<svg class="icon icon-cart-empty" viewBox="0 0 27 27" fill="none" xmlns="http://www.w3.org/2000/svg">
<path d="M9.90046 21.9375C10.4345 21.9375 10.9565 22.086 11.4006 22.3641C11.8446 22.6422 12.1907 23.0376 12.3951 23.5001C12.5994 23.9626 12.6529 24.4716 12.5487 24.9626C12.4445 25.4536 12.1874 25.9046 11.8097 26.2586C11.4321 26.6126 10.951 26.8537 10.4272 26.9514C9.90345 27.049 9.36055 26.9989 8.86717 26.8073C8.37378 26.6157 7.95208 26.2913 7.65539 25.875C7.35869 25.4588 7.20033 24.9694 7.20033 24.4688C7.20033 23.7974 7.48481 23.1536 7.99118 22.6789C8.49755 22.2042 9.18434 21.9375 9.90046 21.9375ZM16.2008 24.4688C16.2008 24.9694 16.3591 25.4588 16.6558 25.875C16.9525 26.2913 17.3742 26.6157 17.8676 26.8073C18.361 26.9989 18.9039 27.049 19.4276 26.9514C19.9514 26.8537 20.4325 26.6126 20.8102 26.2586C21.1878 25.9046 21.4449 25.4536 21.5491 24.9626C21.6533 24.4716 21.5998 23.9626 21.3955 23.5001C21.1911 23.0376 20.845 22.6422 20.401 22.3641C19.957 22.086 19.4349 21.9375 18.9009 21.9375C18.1848 21.9375 17.498 22.2042 16.9916 22.6789C16.4852 23.1536 16.2008 23.7974 16.2008 24.4688ZM1.80008 3.375H3.34816L7.30234 11.4356C6.29363 11.8921 5.48003 12.6561 4.99463 13.6024C4.50923 14.5487 4.38076 15.6215 4.63024 16.6451C4.87971 17.6688 5.49236 18.5828 6.36798 19.2377C7.24359 19.8925 8.33033 20.2494 9.45044 20.25H22.501C22.9785 20.25 23.4363 20.0722 23.7739 19.7557C24.1115 19.4393 24.3011 19.0101 24.3011 18.5625C24.3011 18.1149 24.1115 17.6857 23.7739 17.3693C23.4363 17.0528 22.9785 16.875 22.501 16.875H9.45044C9.09238 16.875 8.74899 16.7417 8.4958 16.5043C8.24261 16.267 8.10038 15.945 8.10038 15.6094C8.10038 15.2737 8.24261 14.9518 8.4958 14.7144C8.74899 14.4771 9.09238 14.3438 9.45044 14.3438H20.701C21.0218 14.3434 21.3368 14.2626 21.6132 14.1098C21.8896 13.957 22.1174 13.7378 22.273 13.4747L26.7732 5.88094C26.8881 5.68722 26.9612 5.47419 26.9882 5.25401C27.0152 5.03383 26.9957 4.81081 26.9308 4.5977C26.8659 4.38458 26.7568 4.18554 26.6099 4.01194C26.4629 3.83834 26.2809 3.69358 26.0742 3.58594C25.8073 3.44652 25.5067 3.37387 25.2012 3.375H7.30834L6.13528 0.981562C5.99133 0.688555 5.76081 0.440368 5.47102 0.266404C5.18123 0.0924393 4.84432 -1.28235e-05 4.50021 1.33411e-09H1.80008C1.56369 -1.96807e-09 1.32962 0.0436485 1.11122 0.128453C0.892825 0.213258 0.694385 0.337558 0.527232 0.494257C0.360079 0.650956 0.227486 0.836985 0.137023 1.04172C0.0465605 1.24646 0 1.46589 0 1.6875C0 1.90911 0.0465605 2.12854 0.137023 2.33328C0.227486 2.53802 0.360079 2.72404 0.527232 2.88074C0.694385 3.03744 0.892825 3.16174 1.11122 3.24655C1.32962 3.33135 1.56369 3.375 1.80008 3.375Z" fill="#6F1645"/>
</svg>
